{"title":"The Lizzie McGuire Movie 2003 720p WEB-DL x264 SSloco","uid":11984907,"size":755445292,"categoryP":"video","categoryS":"hd___movies","magnet":"?xt=urn:btih:21afed082d78a3a5e2cad123954fb8366c74cf51&amp;dn=The+Lizzie+McGuire+Movie+2003+720p+WEB-DL+x264+SSloco&amp;tr=udp%3A%2F%2Ftracker.openbittorrent.com%3A80&amp;tr=udp%3A%2F%2Fopen.demonii.com%3A1337&amp;tr=udp%3A%2F%2Ftracker.coppersurfer.tk%3A6969&amp;tr=udp%3A%2F%2Fexodus.desync.com%3A6969","seeders":14,"leechers":2,"uploader":"myhoes14","files":2,"time":1433327472,"description":"Source:The.Lizzie.McGuire.Movie.2003.720p.WEB-DL.DD5.1.H264-RARBG\n\nMedia Info\n\n\nFormat : MPEG-4\nFormat profile : Base Media\nCodec ID : isom\nFile size : 720 MiB\nDuration : 1h 33mn\nOverall bit rate mode : Variable\nOverall bit rate : 1 073 Kbps\nEncoded date : UTC 2015-02-26 03:44:49\nTagged date : UTC 2015-02-26 03:44:49\n\nVideo\nID : 1\nFormat : AVC\nFormat/Info : Advanced Video Codec\nFormat profile : &lt;a class=&quot;__cf_email__&quot; href=&quot;/cdn-cgi/l/email-protection&quot; data-cfemail=&quot;eda5848a85ada1d9c3dc&quot;&gt;[email&amp;#160;protected]&lt;/a&gt;&lt;script data-cfhash='f9e31' type=&quot;text/javascript&quot;&gt;\n/* &lt;![CDATA[ */!function(){try{var t=&quot;currentScript&quot;in document?document.currentScript:function(){for(var t=document.getElementsByTagName(&quot;script&quot;),e=t.length;e--;)if(t[e].getAttribute(&quot;data-cfhash&quot;))return t[e]}();if(t&amp;&amp;t.previousSibling){var e,r,n,i,c=t.previousSibling,a=c.getAttribute(&quot;data-cfemail&quot;);if(a){for(e=&quot;&quot;,r=parseInt(a.substr(0,2),16),n=2;a.length-n;n+=2)i=parseInt(a.substr(n,2),16)^r,e+=String.fromCharCode(i);e=document.createTextNode(e),c.parentNode.replaceChild(e,c)}t.parentNode.removeChild(t);}}catch(u){}}()/* ]]&gt; */&lt;/script&gt;\nFormat settings, CABAC : Yes\nFormat settings, ReFrames : 5 frames\nCodec ID : avc1\nCodec ID/Info : Advanced Video Coding\nDuration : 1h 33mn\nBit rate : 1 000 Kbps\nMaximum bit rate : 4 499 Kbps\nWidth : 1 280 pixels\nHeight : 540 pixels\nDisplay aspect ratio : 2.40:1\nFrame rate mode : Constant\nFrame rate : 23.976 fps\nColor space : YUV\nChroma subsampling : 4:2:0\nBit depth : 8 bits\nScan type : Progressive\nBits/(Pixel*Frame) : 0.060\nStream size : 671 MiB (93%)\nWriting library : x264 core 142 r2431 ac76440\nEncoding settings : cabac=1 / ref=5 / deblock=1:-1:-1 / analyse=0x3:0x133 / me=umh / subme=9 / psy=1 / psy_rd=1.00:0.00 / mixed_ref=1 / me_range=24 / chroma_me=1 / trellis=2 / 8x8dct=1 / cqm=0 / deadzone=21,11 / fast_pskip=1 / chroma_qp_offset=-2 / threads=6 / lookahead_threads=1 / sliced_threads=0 / nr=0 / decimate=1 / interlaced=0 / bluray_compat=0 / constrained_intra=0 / bframes=3 / b_pyramid=2 / b_adapt=2 / b_bias=0 / direct=3 / weightb=1 / open_gop=0 / weightp=2 / keyint=240 / keyint_min=23 / scenecut=40 / intra_refresh=0 / rc_lookahead=60 / rc=2pass / mbtree=1 / bitrate=1000 / ratetol=1.0 / qcomp=0.60 / qpmin=0 / qpmax=69 / qpstep=4 / cplxblur=20.0 / qblur=0.5 / vbv_maxrate=62500 / vbv_bufsize=78125 / nal_hrd=none / filler=0 / ip_ratio=1.40 / aq=1:1.00\nEncoded date : UTC 2015-02-26 03:44:49\nTagged date : UTC 2015-02-26 03:45:19\nColor primaries : BT.709\nMatrix coefficients : BT.709\nColor range : Limited\n\nAudio\nID : 2\nFormat : AAC\nFormat/Info : Advanced Audio Codec\nFormat profile : HE-AAC / LC\nCodec ID : 40\nDuration : 1h 33mn\nBit rate mode : Variable\nBit rate : 70.1 Kbps\nMaximum bit rate : 95.5 Kbps\nChannel(s) : 2 channels\nChannel positions : Front: L R\nSampling rate : 48.0 KHz / 24.0 KHz\nCompression mode : Lossy\nStream size : 47.1 MiB (7%)\nLanguage : English\nEncoded date : UTC 2015-02-26 03:13:07\nTagged date : UTC 2015-02-26 03:45:19\n\nMenu\n00:00:00.000 : Opening Credits/Graduation Day\n00:08:43.000 : Rome, The Eternal City\n00:15:07.000 : Lizzie's Wish Comes True\n00:22:46.000 : Adventures\n00:29:54.000 : Paolo Asks For Help\n00:36:37.000 : Shopping Spree\n00:48:45.000 : Promises\n00:59:30.000 : &quot;What Dreams Are Made Of&quot;\n01:06:19.000 : Shocking Discoveries\n01:16:50.000 : &quot;What Dreams Are REALLY Made Of&quot;\n01:24:27.000 : The After Party\n01:27:44.000 : Capturing The Moment/End Credits","torrent":{"xt":"urn:btih:21afed082d78a3a5e2cad123954fb8366c74cf51","amp;dn":"The+Lizzie+McGuire+Movie+2003+720p+WEB-DL+x264+SSloco","amp;tr":["udp%3A%2F%2Ftracker.openbittorrent.com%3A80","udp%3A%2F%2Fopen.demonii.com%3A1337","udp%3A%2F%2Ftracker.coppersurfer.tk%3A6969","udp%3A%2F%2Fexodus.desync.com%3A6969"],"infoHash":"21afed082d78a3a5e2cad123954fb8366c74cf51","infoHashBuffer":{"type":"Buffer","data":[33,175,237,8,45,120,163,165,226,202,209,35,149,79,184,54,108,116,207,81]},"announce":[],"urlList":[]}}